<svg width="1527" height="618" viewBox="0 0 1527 618" fill="none" xmlns="http://www.w3.org/2000/svg">
<path d="M1526.04 564.479H1487.51V376H1526.04V564.479Z" fill="white"/>
<path d="M1419.17 423.12H1457.44V564.479H1420.6V538.966H1419.04C1415.66 547.384 1410.28 554.065 1402.9 559.012C1395.53 563.871 1386.63 566.301 1376.22 566.301C1366.85 566.301 1358.56 564.175 1351.36 559.923C1344.15 555.584 1338.51 549.423 1334.43 541.439C1330.44 533.369 1328.45 523.911 1328.45 513.064V423.12H1366.98V506.425C1366.98 511.892 1367.97 516.708 1369.97 520.873C1371.97 524.952 1374.83 528.119 1378.56 530.375C1382.38 532.545 1386.72 533.63 1391.58 533.63C1396.52 533.63 1401.08 532.501 1405.24 530.245C1409.5 527.989 1412.88 524.605 1415.4 520.092C1417.91 515.58 1419.17 510.287 1419.17 504.212V423.12Z" fill="white"/>
<path d="M1239.54 567.212C1225.31 567.212 1212.9 564.262 1202.32 558.361C1191.82 552.46 1183.7 544.043 1177.98 533.109C1172.34 522.175 1169.52 509.332 1169.52 494.58C1169.52 480.002 1172.34 467.202 1177.98 456.182C1183.7 445.074 1191.73 436.483 1202.06 430.409C1212.38 424.335 1224.36 421.297 1237.98 421.297C1250.74 421.297 1262.11 423.987 1272.09 429.368C1282.06 434.661 1289.92 442.688 1295.65 453.448C1301.37 464.208 1304.24 477.355 1304.24 492.888V503.692H1185.27V479.611H1267.92C1267.92 473.884 1266.66 468.808 1264.15 464.382C1261.63 459.87 1258.16 456.355 1253.73 453.839C1249.31 451.322 1244.27 450.064 1238.63 450.064C1232.65 450.064 1227.31 451.452 1222.62 454.229C1217.94 456.919 1214.25 460.651 1211.56 465.423C1208.96 470.196 1207.61 475.403 1207.52 481.043V503.692C1207.52 510.721 1208.87 516.882 1211.56 522.175C1214.25 527.468 1218.02 531.504 1222.88 534.28C1227.83 537.057 1233.56 538.446 1240.06 538.446C1244.4 538.446 1248.35 537.838 1251.91 536.623C1255.47 535.322 1258.46 533.673 1260.89 531.677C1263.41 529.595 1265.32 527.165 1266.62 524.388H1303.32C1301.5 532.979 1297.73 540.528 1292 547.037C1286.36 553.458 1279.03 558.448 1270 562.006C1261.06 565.477 1250.91 567.212 1239.54 567.212Z" fill="white"/>
<path d="M1052.76 617.586C1045.21 617.586 1038.7 617.369 1033.23 616.935V586.867L1039.74 587.257C1042.34 587.344 1045.38 587.388 1048.85 587.388C1051.98 587.388 1054.58 587.127 1056.66 586.607C1058.75 586.086 1060.7 584.871 1062.52 582.962C1064.34 581.053 1065.95 578.189 1067.34 574.371L1069.68 568.514L1018.78 423.12H1059.4L1089.07 527.251H1090.64L1120.44 423.12H1161.32L1106.13 579.968C1101.87 591.943 1095.5 601.185 1086.99 607.693C1078.49 614.288 1067.08 617.586 1052.76 617.586Z" fill="white"/>
<path d="M873 376H911.399V446.81H912.7C915.217 441.69 917.994 437.394 921.031 433.923C924.068 430.452 928.277 427.502 933.657 425.072C939.037 422.556 945.415 421.297 952.791 421.297C963.465 421.297 973.14 424.031 981.818 429.498C990.582 434.965 997.524 443.165 1002.64 454.099C1007.76 465.033 1010.32 478.31 1010.32 493.929C1010.32 509.202 1007.81 522.349 1002.77 533.369C997.828 544.303 991.016 552.59 982.338 558.231C973.661 563.871 963.812 566.691 952.791 566.691C945.589 566.691 939.297 565.477 933.917 563.047C928.624 560.617 924.328 557.667 921.031 554.196C917.82 550.725 915.043 546.646 912.7 541.96H910.748V564.479H873V376ZM910.618 493.669C910.618 502.173 911.789 509.636 914.132 516.057C916.562 522.392 920.033 527.295 924.545 530.766C929.058 534.237 934.438 535.973 940.686 535.973C947.107 535.973 952.574 534.194 957.086 530.636C961.599 527.078 965.027 522.132 967.37 515.797C969.712 509.376 970.884 502 970.884 493.669C970.884 485.338 969.712 478.049 967.37 471.801C965.113 465.553 961.729 460.737 957.217 457.353C952.704 453.882 947.194 452.146 940.686 452.146C934.351 452.146 928.927 453.839 924.415 457.223C919.99 460.52 916.562 465.293 914.132 471.541C911.789 477.789 910.618 485.165 910.618 493.669Z" fill="white"/>
<path d="M353.658 492.479H315.129V351.12H351.836V375.851H353.398C356.695 367.52 361.988 361.012 369.278 356.326C376.654 351.64 385.548 349.297 395.962 349.297C405.767 349.297 414.315 351.423 421.604 355.675C428.893 359.927 434.534 366.045 438.525 374.029C442.604 382.012 444.643 391.471 444.643 402.405V492.479H406.114V409.043C406.114 403.229 405.116 398.283 403.121 394.204C401.211 390.039 398.348 386.872 394.53 384.702C390.712 382.446 386.112 381.318 380.732 381.318C375.352 381.318 370.623 382.489 366.544 384.832C362.466 387.089 359.298 390.429 357.042 394.855C354.786 399.194 353.658 404.444 353.658 410.605V492.479Z" fill="white"/>
<path d="M246.793 351.12H285.061V492.479H248.224V466.966H246.662C243.278 475.384 237.898 482.065 230.522 487.012C223.146 491.871 214.251 494.301 203.838 494.301C194.466 494.301 186.179 492.175 178.977 487.923C171.774 483.584 166.134 477.423 162.055 469.439C158.063 461.369 156.068 451.911 156.068 441.064V351.12H194.596V434.425C194.596 439.892 195.594 444.708 197.59 448.873C199.586 452.952 202.45 456.119 206.181 458.375C209.999 460.545 214.338 461.63 219.198 461.63C224.144 461.63 228.7 460.501 232.865 458.245C237.117 455.989 240.501 452.605 243.018 448.092C245.534 443.58 246.793 438.287 246.793 432.212V351.12Z" fill="white"/>
<path d="M0 304H126.52V336.281H39.0495V382.099H119.882V414.25H39.0495V460.198H126.781V492.479H0V304Z" fill="white"/>
<path d="M1294.43 101.008H1300.16L1346.11 47.1197H1390.49L1329.31 118.06H1320.33L1294.43 147.216V101.008ZM1259.55 0H1298.07V188.479H1259.55V0ZM1305.75 126.65L1331.4 99.3158L1393.1 188.479H1347.93L1305.75 126.65Z" fill="white"/>
<path d="M1170.64 191.212C1156.41 191.212 1144 188.262 1133.42 182.361C1122.92 176.46 1114.8 168.043 1109.08 157.109C1103.43 146.175 1100.61 133.332 1100.61 118.58C1100.61 104.002 1103.43 91.2022 1109.08 80.1815C1114.8 69.0741 1122.83 60.4833 1133.16 54.4089C1143.48 48.3345 1155.46 45.2974 1169.08 45.2974C1181.84 45.2974 1193.21 47.9874 1203.18 53.3676C1213.16 58.661 1221.02 66.6878 1226.74 77.4481C1232.47 88.2084 1235.34 101.355 1235.34 116.888V127.692H1116.36V103.611H1199.02C1199.02 97.884 1197.76 92.8075 1195.24 88.3819C1192.73 83.8695 1189.26 80.3551 1184.83 77.8386C1180.41 75.3221 1175.37 74.0638 1169.73 74.0638C1163.74 74.0638 1158.41 75.4522 1153.72 78.2291C1149.04 80.9191 1145.35 84.6505 1142.66 89.4232C1140.05 94.196 1138.71 99.4025 1138.62 105.043V127.692C1138.62 134.721 1139.97 140.882 1142.66 146.175C1145.35 151.468 1149.12 155.504 1153.98 158.28C1158.93 161.057 1164.66 162.446 1171.16 162.446C1175.5 162.446 1179.45 161.838 1183.01 160.623C1186.57 159.322 1189.56 157.673 1191.99 155.677C1194.51 153.595 1196.42 151.165 1197.72 148.388H1234.42C1232.6 156.979 1228.83 164.528 1223.1 171.037C1217.46 177.458 1210.13 182.448 1201.1 186.006C1192.16 189.477 1182.01 191.212 1170.64 191.212Z" fill="white"/>
<path d="M1040.74 127.431C1037.27 127.518 1031.15 127.865 1022.39 128.473L1009.89 129.514C1003.03 130.035 997.654 131.9 993.749 135.111C989.844 138.235 987.892 142.487 987.892 147.867C987.892 151.338 988.76 154.289 990.495 156.718C992.317 159.148 994.834 161.014 998.045 162.316C1001.34 163.617 1005.03 164.268 1009.11 164.268C1014.92 164.268 1020.09 163.14 1024.6 160.884C1029.11 158.541 1032.63 155.373 1035.14 151.382C1037.66 147.303 1038.92 142.834 1038.92 137.975L1038.66 92.2869C1038.66 88.2951 1037.79 84.9109 1036.05 82.134C1034.4 79.2704 1031.84 77.1444 1028.37 75.7559C1024.99 74.2807 1020.95 73.5431 1016.27 73.5431C1009.76 73.5431 1004.47 74.9316 1000.39 77.7084C996.309 80.3985 993.749 84.2166 992.708 89.1629H956.001C956.869 80.8324 959.776 73.3696 964.722 66.7746C969.756 60.0928 976.698 54.8428 985.549 51.0246C994.487 47.2064 1005.03 45.2974 1017.18 45.2974C1028.11 45.2974 1038.09 46.9895 1047.12 50.3738C1056.14 53.7581 1063.39 59.0514 1068.85 66.2539C1074.41 73.3696 1077.18 82.351 1077.18 93.198V188.479H1040.61V168.954H1039.57C1037.22 173.38 1034.14 177.241 1030.33 180.539C1026.51 183.836 1021.91 186.439 1016.53 188.349C1011.23 190.171 1005.07 191.082 998.045 191.082C988.933 191.082 980.863 189.477 973.834 186.266C966.805 183.055 961.251 178.282 957.173 171.948C953.094 165.613 951.055 157.977 951.055 149.039C951.055 134.287 955.915 123.57 965.634 116.888C975.439 110.206 988.109 106.388 1003.64 105.434C1006.25 105.173 1014.27 104.739 1027.72 104.132L1040.48 103.611L1040.74 127.431Z" fill="white"/>
<path d="M789 0H863.975C877.425 0 888.836 2.03925 898.208 6.11775C907.58 10.1095 914.609 15.7499 919.295 23.0392C924.068 30.2416 926.454 38.7023 926.454 48.4213C926.454 55.537 924.979 61.8717 922.028 67.4254C919.165 72.9791 915.173 77.5782 910.053 81.2229C905.02 84.7807 899.163 87.2972 892.481 88.7724V90.5947C899.684 90.9418 906.452 93.0245 912.787 96.8426C919.121 100.661 924.198 105.998 928.016 112.853C931.834 119.621 933.743 127.518 933.743 136.543C933.743 146.609 931.27 155.547 926.324 163.357C921.378 171.167 914.002 177.328 904.196 181.84C894.477 186.266 882.719 188.479 868.921 188.479H789V0ZM860.981 156.328C868.357 156.328 874.432 155.373 879.204 153.464C884.064 151.468 887.622 148.735 889.878 145.264C892.134 141.706 893.262 137.497 893.262 132.638C893.262 127.431 892.004 122.745 889.487 118.58C886.971 114.415 883.326 111.248 878.553 109.078C873.867 106.822 868.357 105.694 862.022 105.694H828.049V156.328H860.981ZM858.118 79.0101C863.584 79.0101 868.487 78.0121 872.826 76.0163C877.252 74.0204 880.679 71.2002 883.109 67.5556C885.626 63.9109 886.884 59.6155 886.884 54.6692C886.884 49.9833 885.799 45.9482 883.63 42.5639C881.46 39.0928 878.25 36.4462 873.998 34.6238C869.832 32.7148 864.799 31.7602 858.899 31.7602H828.049V79.0101H858.118Z" fill="white"/>
</svg>
